<svg width="353" height="45" viewBox="0 0 353 45" fill="none" xmlns="http://www.w3.org/2000/svg">
<path d="M18.18 17.6035C18.18 19.7235 17.27 21.4035 15.45 22.6435C13.65 23.8635 11.01 24.5135 7.53 24.5935V30.7435L10.8 30.7735V31.8235H1.08V30.7735L2.55 30.7435V12.8035L1.08 12.7735V11.7235L6.87 11.7835L11.34 11.5735C12.78 11.5735 14.01 11.8435 15.03 12.3835C16.07 12.9235 16.85 13.6535 17.37 14.5735C17.91 15.4935 18.18 16.5035 18.18 17.6035ZM12.84 18.4735C12.84 17.4135 12.61 16.4535 12.15 15.5935C11.69 14.7135 11.05 14.0235 10.23 13.5235C9.43 13.0235 8.53 12.7735 7.53 12.7735V23.4235C9.19 23.3235 10.49 22.8435 11.43 21.9835C12.37 21.1035 12.84 19.9335 12.84 18.4735ZM39.2449 30.7735V31.8235H32.0149L27.9349 23.7835L28.0249 23.7235C27.5649 23.7635 26.9149 23.8035 26.0749 23.8435V30.7435L27.5449 30.7735V31.8235H19.6249V30.7735L21.0949 30.7435V12.8035L19.6249 12.7735V11.7235L25.4149 11.7835L29.8849 11.4235C31.3249 11.4235 32.5549 11.6935 33.5749 12.2335C34.6149 12.7535 35.3949 13.4635 35.9149 14.3635C36.4549 15.2435 36.7249 16.2235 36.7249 17.3035C36.7249 18.5435 36.3649 19.6235 35.6449 20.5435C34.9249 21.4635 33.8449 22.2035 32.4049 22.7635L37.7749 30.7435L39.2449 30.7735ZM26.0749 22.6735C27.7349 22.5735 29.0349 22.1235 29.9749 21.3235C30.9149 20.5035 31.3849 19.4035 31.3849 18.0235C31.3849 17.0435 31.1549 16.1535 30.6949 15.3535C30.2349 14.5535 29.6049 13.9235 28.8049 13.4635C28.0049 13.0035 27.0949 12.7735 26.0749 12.7735V22.6735ZM49.1782 11.2735C51.1382 11.2735 52.8482 11.6535 54.3082 12.4135C55.7882 13.1735 56.9282 14.2935 57.7282 15.7735C58.5482 17.2535 58.9582 19.0635 58.9582 21.2035C58.9582 22.5635 58.7182 23.9735 58.2382 25.4335C57.7582 26.8735 57.0582 28.1535 56.1382 29.2735C55.1782 30.1735 54.0782 30.9035 52.8382 31.4635C51.5982 32.0035 50.2782 32.2735 48.8782 32.2735C46.9382 32.2735 45.2282 31.8935 43.7482 31.1335C42.2882 30.3735 41.1482 29.2535 40.3282 27.7735C39.5282 26.2935 39.1282 24.4835 39.1282 22.3435C39.1282 21.0035 39.3782 19.6035 39.8782 18.1435C40.3782 16.6835 41.0882 15.3935 42.0082 14.2735C42.9482 13.3735 44.0282 12.6535 45.2482 12.1135C46.4882 11.5535 47.7982 11.2735 49.1782 11.2735ZM44.4682 20.2435C44.4682 22.5635 44.7682 24.4335 45.3682 25.8535C45.9682 27.2735 46.8782 28.3235 48.0982 29.0035C49.3182 29.6635 50.8982 30.0435 52.8382 30.1435C53.0782 29.1435 53.2682 27.9735 53.4082 26.6335C53.5682 25.2735 53.6482 24.1635 53.6482 23.3035C53.6482 20.9635 53.3382 19.0835 52.7182 17.6635C52.1182 16.2235 51.1982 15.1635 49.9582 14.4835C48.7182 13.8035 47.1382 13.4235 45.2182 13.3435C44.9982 14.3835 44.8182 15.5935 44.6782 16.9735C44.5382 18.3535 44.4682 19.4435 44.4682 20.2435ZM81.0654 25.8535V31.8235H65.8554V30.7735L67.3254 30.7435V12.8035L65.8554 12.7735V11.7235H75.5754V12.7735L72.3054 12.8035V30.6835C74.8054 29.8035 77.3154 28.7035 79.8354 27.3835L79.8954 25.8835L81.0654 25.8535ZM82.3202 30.7735L83.7902 30.7435V12.8035L82.3202 12.7735V11.7235H90.2402V12.7735L88.7702 12.8035V30.7435L90.2402 30.7735V31.8235H82.3202V30.7735ZM117.928 30.7735V31.8235H109.618V30.7735L111.238 30.7435L109.828 15.3535L104.038 28.4635H103.108L96.8984 15.2635L96.3284 30.7435L97.9484 30.7735V31.8235H91.3784V30.7735L92.5484 30.7435L95.4284 12.8035L93.7784 12.7735V11.7235H100.678L105.508 21.5335L109.678 11.7235H115.888V12.7735L114.298 12.8035L116.758 30.7435L117.928 30.7735ZM170.367 14.9035C170.367 15.5435 170.547 16.1335 170.907 16.6735C171.267 17.2135 171.717 17.6935 172.257 18.1135C172.797 18.5335 173.537 19.0535 174.477 19.6735C175.577 20.3935 176.457 21.0335 177.117 21.5935C177.777 22.1335 178.337 22.7935 178.797 23.5735C179.277 24.3335 179.517 25.1935 179.517 26.1535C179.517 27.2135 179.227 28.2135 178.647 29.1535C178.067 30.0735 177.197 30.8235 176.037 31.4035C174.877 31.9835 173.477 32.2735 171.837 32.2735C168.317 32.2735 165.817 30.8735 164.337 28.0735L167.727 25.4635C168.687 27.4435 169.767 29.3635 170.967 31.2235H170.997C171.577 31.2235 172.117 31.0735 172.617 30.7735C173.117 30.4535 173.517 30.0435 173.817 29.5435C174.117 29.0435 174.267 28.5135 174.267 27.9535C174.267 27.3535 174.087 26.8035 173.727 26.3035C173.387 25.7835 172.957 25.3335 172.437 24.9535C171.917 24.5535 171.207 24.0735 170.307 23.5135C169.227 22.8335 168.357 22.2335 167.697 21.7135C167.037 21.1935 166.467 20.5635 165.987 19.8235C165.527 19.0635 165.297 18.1935 165.297 17.2135C165.297 16.1135 165.607 15.1135 166.227 14.2135C166.867 13.2935 167.767 12.5735 168.927 12.0535C170.107 11.5335 171.487 11.2735 173.067 11.2735C174.607 11.2735 175.867 11.5235 176.847 12.0235C177.847 12.5035 178.747 13.1935 179.547 14.0935L176.397 17.2735C175.337 15.5135 174.267 13.8635 173.187 12.3235C172.287 12.3235 171.587 12.5735 171.087 13.0735C170.607 13.5535 170.367 14.1635 170.367 14.9035ZM196.671 25.8535V31.8235H181.461V30.7735L182.931 30.7435V12.8035L181.461 12.7735V11.7235H196.071V17.5435L194.901 17.5135L194.841 16.0135C192.621 14.6335 190.311 13.4735 187.911 12.5335L187.971 20.8735H193.581V21.9835H187.971L188.031 30.9835C190.591 30.0035 193.061 28.8035 195.441 27.3835L195.501 25.8835L196.671 25.8535ZM218.132 30.7735V31.8235H210.902L206.822 23.7835L206.912 23.7235C206.452 23.7635 205.802 23.8035 204.962 23.8435V30.7435L206.432 30.7735V31.8235H198.512V30.7735L199.982 30.7435V12.8035L198.512 12.7735V11.7235L204.302 11.7835L208.772 11.4235C210.212 11.4235 211.442 11.6935 212.462 12.2335C213.502 12.7535 214.282 13.4635 214.802 14.3635C215.342 15.2435 215.612 16.2235 215.612 17.3035C215.612 18.5435 215.252 19.6235 214.532 20.5435C213.812 21.4635 212.732 22.2035 211.292 22.7635L216.662 30.7435L218.132 30.7735ZM204.962 22.6735C206.622 22.5735 207.922 22.1235 208.862 21.3235C209.802 20.5035 210.272 19.4035 210.272 18.0235C210.272 17.0435 210.042 16.1535 209.582 15.3535C209.122 14.5535 208.492 13.9235 207.692 13.4635C206.892 13.0035 205.982 12.7735 204.962 12.7735V22.6735ZM236.25 11.7235V12.7735L234.99 12.8035L227.97 31.5835L224.07 32.0935L217.56 12.8035L216.3 12.7735V11.7235H225.42V12.7735L223.65 12.8035L227.64 28.2535L231.21 12.8035L229.44 12.7735V11.7235H236.25ZM237.389 30.7735L238.859 30.7435V12.8035L237.389 12.7735V11.7235H245.309V12.7735L243.839 12.8035V30.7435L245.309 30.7735V31.8235H237.389V30.7735ZM258.957 28.8235C259.837 28.8235 260.687 28.6435 261.507 28.2835C262.327 27.9235 263.087 27.4035 263.787 26.7235L264.567 27.5935C262.107 30.7135 259.287 32.2735 256.107 32.2735C254.287 32.2735 252.697 31.8635 251.337 31.0435C249.997 30.2235 248.957 29.0635 248.217 27.5635C247.477 26.0635 247.107 24.3035 247.107 22.2835C247.107 20.5435 247.437 18.8635 248.097 17.2435C248.777 15.6035 249.637 14.2935 250.677 13.3135C251.697 12.6535 252.787 12.1535 253.947 11.8135C255.127 11.4535 256.287 11.2735 257.427 11.2735C258.947 11.2735 260.337 11.6035 261.597 12.2635C262.877 12.9035 263.887 13.8035 264.627 14.9635L260.937 18.0535C259.897 16.2135 258.647 14.2235 257.187 12.0835C256.307 12.4435 255.507 13.0635 254.787 13.9435C254.067 14.8235 253.497 15.8735 253.077 17.0935C252.677 18.3135 252.477 19.5835 252.477 20.9035C252.477 23.4235 253.037 25.3735 254.157 26.7535C255.297 28.1335 256.897 28.8235 258.957 28.8235ZM280.987 25.8535V31.8235H265.777V30.7735L267.247 30.7435V12.8035L265.777 12.7735V11.7235H280.387V17.5435L279.217 17.5135L279.157 16.0135C276.937 14.6335 274.627 13.4735 272.227 12.5335L272.287 20.8735H277.897V21.9835H272.287L272.347 30.9835C274.907 30.0035 277.377 28.8035 279.757 27.3835L279.817 25.8835L280.987 25.8535Z" fill="white"/>
<path d="M142.231 20.4628C141.045 20.4628 140.079 21.258 140.079 22.2353C140.079 23.2127 141.045 24.0078 142.231 24.0078C143.418 24.0078 144.384 23.2127 144.384 22.2353C144.384 21.258 143.418 20.4628 142.231 20.4628Z" fill="white"/>
<path d="M143.657 15.09V18.2863C144.762 18.5573 145.708 19.1347 146.35 19.899L150.041 18.9112C148.786 16.9188 146.439 15.465 143.657 15.09Z" fill="white"/>
<path d="M150.924 21.1436L147.232 22.1317C147.233 22.1663 147.235 22.2006 147.235 22.2353C147.235 23.1763 146.849 24.0441 146.202 24.7386L148.482 27.3227C150.053 26.014 151.024 24.2164 151.024 22.2353C151.024 21.8643 150.99 21.4997 150.924 21.1436Z" fill="white"/>
<path d="M142.231 6.77875H124.888C124.101 6.77875 123.463 7.30437 123.463 7.95272C123.463 8.60106 124.101 9.12669 124.888 9.12669H132.298C130.735 9.93299 129.325 10.9232 128.115 12.0609H118.426C117.638 12.061 117 12.5867 117 13.235C117 13.8834 117.638 14.409 118.426 14.409H126.053C124.408 16.706 123.463 19.3813 123.463 22.2353C123.463 25.5562 124.741 28.6358 126.914 31.1581H122.869C122.082 31.1581 121.444 31.6837 121.444 32.332C121.444 32.9804 122.082 33.506 122.869 33.506H129.402C130.291 34.1926 131.261 34.8088 132.298 35.3439H118.573C117.785 35.3439 117.147 35.8695 117.147 36.5179C117.147 37.1662 117.785 37.6918 118.573 37.6918H142.231C152.581 37.6918 161 30.758 161 22.2353C161 13.7125 152.58 6.77875 142.231 6.77875ZM149.156 29.9396C149.13 29.9578 149.104 29.9762 149.075 29.993C149.044 30.0121 149.011 30.0298 148.978 30.0464C147.073 31.1654 144.744 31.8244 142.231 31.8244C139.718 31.8244 137.389 31.1654 135.484 30.0464C135.451 30.0298 135.419 30.0121 135.387 29.993C135.359 29.9761 135.333 29.9577 135.307 29.9396C132.445 28.1908 130.587 25.3885 130.587 22.2353C130.587 16.9479 135.811 12.6462 142.231 12.6462C148.652 12.6462 153.875 16.9479 153.875 22.2353C153.875 25.3886 152.017 28.1908 149.156 29.9396Z" fill="white"/>
<path d="M134.421 18.9111L138.113 19.8989C138.754 19.1347 139.7 18.5573 140.806 18.2862V15.0899C138.024 15.465 135.677 16.9187 134.421 18.9111Z" fill="white"/>
<path d="M143.897 26.1203C143.375 26.2723 142.815 26.3559 142.231 26.3559C141.648 26.3559 141.087 26.2723 140.566 26.1203L138.285 28.705C139.473 29.1981 140.813 29.4764 142.231 29.4764C143.649 29.4764 144.99 29.1982 146.177 28.705L143.897 26.1203Z" fill="white"/>
<path d="M137.228 22.2353C137.228 22.2006 137.23 22.1663 137.231 22.1317L133.538 21.1436C133.473 21.4997 133.438 21.8643 133.438 22.2353C133.438 24.2165 134.41 26.0141 135.981 27.3229L138.261 24.7386C137.614 24.0441 137.228 23.1763 137.228 22.2353Z" fill="white"/>
</svg>
