<svg width="62" height="62" viewBox="0 0 62 62" fill="none" xmlns="http://www.w3.org/2000/svg">
<path d="M32.0338 29.9122H29.9671C29.3964 29.9122 28.9338 30.3748 28.9338 30.9455C28.9338 31.5162 29.3964 31.9788 29.9671 31.9788H32.0338C32.6045 31.9788 33.0671 31.5162 33.0671 30.9455C33.0671 30.3748 32.6045 29.9122 32.0338 29.9122Z" fill="#C79F61"/>
<path d="M33.0672 34.0455H28.9339C28.3632 34.0455 27.9006 34.5082 27.9006 35.0788C27.9006 35.6495 28.3632 36.1121 28.9339 36.1121H33.0672C33.6379 36.1121 34.1005 35.6494 34.1005 35.0788C34.1005 34.5082 33.6379 34.0455 33.0672 34.0455Z" fill="#C79F61"/>
<path d="M27.9005 22.6788H23.7672C23.1965 22.6788 22.7339 23.1414 22.7339 23.7121C22.7339 24.2828 23.1965 24.7454 23.7672 24.7454H24.8005V25.7787C24.8005 26.3494 25.2632 26.812 25.8338 26.812C26.4045 26.812 26.8671 26.3494 26.8671 25.7787V24.7454H27.9003C28.4711 24.7454 28.9336 24.2828 28.9336 23.7121C28.9336 23.1414 28.4712 22.6788 27.9005 22.6788Z" fill="#C79F61"/>
<path d="M38.2337 22.6788H34.1004C33.5297 22.6788 33.0671 23.1414 33.0671 23.7121C33.0671 24.2828 33.5297 24.7454 34.1004 24.7454H35.1337V25.7787C35.1337 26.3494 35.5963 26.812 36.167 26.812C36.7377 26.812 37.2003 26.3494 37.2003 25.7787V24.7454H38.2336C38.8043 24.7454 39.2669 24.2828 39.2669 23.7121C39.2669 23.1414 38.8044 22.6788 38.2337 22.6788Z" fill="#C79F61"/>
<path d="M55.9267 57.903L54.5462 53.5982C53.9134 51.9139 52.9284 50.384 51.6571 49.1107C50.8032 48.3711 49.9012 47.6891 48.9567 47.0693L48.8599 47.0067C48.4415 46.7666 48.008 46.554 47.5621 46.3699C46.0501 45.7498 44.4329 45.4267 42.7989 45.4183L39.3972 42.0175C39.3947 41.0947 39.4491 40.1729 39.5599 39.2568C39.689 38.1628 39.873 37.076 40.1116 36.0006C41.3913 34.5996 42.1806 32.8203 42.36 30.9313C42.4906 30.969 42.625 30.9914 42.7606 30.9982C42.949 30.9979 43.1361 30.9668 43.3146 30.9064C43.8474 30.7288 45.4671 30.1889 45.4671 23.7125C45.4671 23.0162 45.4671 20.898 44.0412 20.2583C43.8123 20.1587 43.5654 20.1076 43.3158 20.1081C43.474 18.96 43.4102 17.7922 43.128 16.6682C45.9644 14.8463 47.5338 12.4628 47.5338 9.9108C47.5338 4.35332 40.2713 0 31.0005 0C21.7297 0 14.4672 4.35332 14.4672 9.91055C14.4672 12.4624 16.0366 14.845 18.8703 16.6709C18.5903 17.7944 18.5276 18.9609 18.6855 20.1079C18.4358 20.107 18.1886 20.1581 17.9598 20.258C16.5339 20.8978 16.5339 23.0159 16.5339 23.7122C16.5339 30.1887 18.1535 30.7285 18.6863 30.9062C18.8648 30.9667 19.0519 30.9977 19.2403 30.9979C19.376 30.9912 19.5105 30.9688 19.6409 30.9311C19.8204 32.8202 20.6095 34.5995 21.8895 36.0003C22.1285 37.0777 22.3126 38.1665 22.4412 39.2626C22.5521 40.1766 22.6064 41.0966 22.6038 42.0172L19.2023 45.418C17.5671 45.4266 15.9489 45.7501 14.4361 46.3708C13.9913 46.5547 13.5589 46.7671 13.1413 47.0065L13.0445 47.0691C12.1015 47.6885 11.2004 48.3694 10.3471 49.1075C9.06144 50.3924 8.0692 51.9406 7.43878 53.6455L6.07345 57.905C5.55408 59.5382 6.45708 61.2832 8.09039 61.8026C8.39494 61.8995 8.71257 61.9487 9.03214 61.9485H29.6444C29.7486 61.9826 29.8576 62 29.9673 62H32.034C32.1378 61.9998 32.2407 61.9824 32.3388 61.9485H52.9692C54.6828 61.9495 56.0727 60.561 56.0735 58.8474C56.0735 58.5269 56.024 58.2084 55.9267 57.903ZM40.8465 46.39L39.1759 47.8199C37.9961 47.0835 36.7219 46.5105 35.3882 46.1165L38.1804 43.7228L40.8465 46.39ZM32.8283 45.5888C31.6141 45.4432 30.3868 45.4432 29.1726 45.5885L24.6653 41.7236C24.6573 40.8214 24.6001 39.9204 24.4937 39.0244C24.4829 38.9278 24.4637 38.827 24.4519 38.73C25.076 39.3095 25.738 39.8964 26.4827 40.4998C29.1154 42.6343 32.8826 42.6352 35.5163 40.5019C36.2615 39.8982 36.9238 39.3108 37.5483 38.731C37.5366 38.8254 37.5179 38.9244 37.5072 39.0185C37.401 39.9164 37.3437 40.8195 37.3356 41.7237L32.8283 45.5888ZM43.1866 22.1834C43.3657 22.672 43.4386 23.1932 43.4006 23.7122C43.4006 26.9475 42.9505 28.3955 42.6932 28.8436C42.5302 28.7006 42.3821 28.5413 42.2511 28.3685C42.1916 26.3571 42.3898 24.3464 42.8408 22.3853C42.9464 22.3027 43.0628 22.2348 43.1866 22.1834ZM16.5338 9.91055C16.5338 5.6592 23.1586 2.06671 31.0005 2.06671C38.8424 2.06671 45.4672 5.6592 45.4672 9.91055C45.4259 11.1083 44.9538 12.2511 44.1375 13.1285C44.2269 13.0292 44.2991 12.9157 44.3512 12.7926C44.4615 12.5425 44.4615 12.2576 44.3512 12.0075C44.2989 11.8822 44.2255 11.7669 44.1342 11.6664C44.0849 11.622 44.033 11.5806 43.9788 11.5423C43.9214 11.5031 43.8589 11.4718 43.7932 11.4494C43.7346 11.4197 43.6721 11.3987 43.6076 11.3868C43.121 11.2764 42.6274 11.5411 42.4501 12.0074C42.3398 12.2575 42.3398 12.5424 42.4501 12.7925C42.5027 12.9177 42.5761 13.033 42.6671 13.1336C43.0738 13.5327 43.725 13.5333 44.1324 13.1348C43.6857 13.6525 43.1807 14.117 42.6275 14.519C42.5436 14.49 42.4561 14.4723 42.3674 14.4665H19.6339C19.5444 14.4723 19.4562 14.4901 19.3715 14.5195C17.5359 13.1675 16.5338 11.5596 16.5338 9.91055ZM40.5387 16.5333C39.026 17.6282 35.5708 18.6 31.0005 18.6C26.4262 18.6 22.9689 17.6262 21.4604 16.5333H40.5387ZM19.7503 28.3683C19.6192 28.5412 19.471 28.7004 19.3079 28.8436C19.0506 28.3955 18.6005 26.9474 18.6005 23.7122C18.5625 23.1932 18.6355 22.672 18.8143 22.1834C18.9383 22.2358 19.0548 22.3044 19.1609 22.3872C19.6117 24.3476 19.8098 26.3576 19.7503 28.3683ZM21.7005 30.8628C21.7005 30.6348 21.7096 30.4057 21.7277 30.1938C22.0317 27.0761 21.7656 23.9292 20.9427 20.9068C20.7635 20.2376 20.6708 19.5482 20.6672 18.8553C20.6672 18.7311 20.6868 18.6114 20.6926 18.4885C22.893 19.8411 26.6628 20.6667 31.0005 20.6667C35.3387 20.6667 39.1089 19.841 41.3082 18.4896C41.314 18.612 41.3338 18.7319 41.3338 18.8554C41.3305 19.544 41.2388 20.2294 41.0613 20.8948C40.2367 23.9187 39.9697 27.0674 40.2732 30.1867C40.2914 30.4057 40.3005 30.6348 40.3005 30.8628C40.3005 32.8639 38.139 35.7166 34.2125 38.8974C32.3395 40.4165 29.6584 40.4156 27.7864 38.8953C23.862 35.7166 21.7005 32.8639 21.7005 30.8628ZM23.8207 43.723L26.6129 46.1166C25.2792 46.5108 24.005 47.0837 22.8251 47.8198L21.1546 46.3902L23.8207 43.723ZM9.03214 59.8818C8.70094 59.8839 8.38901 59.7261 8.19453 59.458C7.99763 59.1921 7.94084 58.8476 8.04219 58.5326L9.39033 54.3227C9.91987 52.9119 10.7454 51.6309 11.8112 50.5657C11.9 50.4759 12.1594 50.264 14.2099 48.7766C14.5356 48.5919 14.8724 48.4271 15.218 48.2831C16.4982 47.7573 17.8685 47.4853 19.2524 47.4824L21.0857 49.0517C20.7235 49.3544 20.3732 49.6722 20.0394 50.0058C17.3938 52.6434 15.799 56.1542 15.5534 59.882H9.03214V59.8818ZM21.762 59.8818C22.1176 56.9006 23.8851 54.2722 26.5119 52.8181C26.741 52.6902 26.9791 52.5801 27.2182 52.4732L28.6967 59.8818H21.762ZM33.3038 59.8818L34.7826 52.4733C35.023 52.5808 35.2625 52.6916 35.494 52.8211C38.1183 54.2757 39.8836 56.9026 40.2388 59.8818H33.3038ZM42.3132 59.8818C41.9517 56.1475 39.7755 52.8303 36.4941 51.0117C35.7994 50.6253 35.0649 50.3153 34.3033 50.0874C34.2865 50.0824 34.27 50.0869 34.2532 50.0829C34.2359 50.0787 34.223 50.0667 34.2053 50.0633C34.151 50.0591 34.0964 50.0594 34.042 50.0642C33.9772 50.0583 33.9121 50.0587 33.8474 50.0652C33.7789 50.0789 33.712 50.0998 33.6478 50.1276C33.5218 50.1618 33.4082 50.2316 33.3209 50.3287C33.2723 50.3688 33.2278 50.4135 33.1877 50.4621C33.1486 50.5202 33.1156 50.5822 33.0892 50.6471C33.0619 50.69 33.0379 50.735 33.0175 50.7816C33.0125 50.7986 33.0171 50.8151 33.0131 50.8319C33.0088 50.8492 32.9968 50.8619 32.9934 50.8796L31.1965 59.882H30.8044L29.0075 50.8796C29.0041 50.8622 28.9921 50.8493 28.9879 50.8321C28.9839 50.8152 28.9884 50.7986 28.9834 50.7816C28.963 50.7344 28.9386 50.689 28.9108 50.6456C28.8845 50.5815 28.8518 50.5201 28.8132 50.4624C28.772 50.4125 28.7262 50.3669 28.6762 50.326C28.5885 50.2292 28.4748 50.1599 28.3486 50.1263C28.2857 50.0992 28.22 50.0786 28.1527 50.0651C28.0882 50.0586 28.0231 50.0582 27.9585 50.064C27.9044 50.0592 27.85 50.0588 27.7957 50.0632C27.7781 50.0666 27.7652 50.0786 27.7479 50.0828C27.7311 50.0869 27.7146 50.0824 27.6978 50.0873C26.938 50.3146 26.2052 50.6235 25.512 51.0086C22.228 52.8268 20.0497 56.1454 19.6879 59.8817H17.6096C17.8581 56.7015 19.2386 53.7157 21.5007 51.4667C22.061 50.9066 22.6683 50.3958 23.3161 49.9399C27.9374 46.7366 34.0611 46.7363 38.6829 49.9388C39.3315 50.3949 39.9396 50.906 40.5003 51.4667C42.7624 53.7157 44.143 56.7015 44.3915 59.8817H42.3132V59.8818ZM53.8064 59.458C53.612 59.7261 53.3 59.8839 52.9688 59.8818H46.4474C46.2019 56.1541 44.6072 52.6432 41.9614 50.0057C41.6279 49.6722 41.2775 49.3545 40.9152 49.0517L42.7485 47.4824C44.1314 47.4853 45.5006 47.757 46.78 48.2821C47.1268 48.4264 47.4644 48.5914 47.7911 48.7766C49.8416 50.264 50.101 50.4759 50.1928 50.5688C51.2441 51.6224 52.0623 52.8852 52.5944 54.2752L53.9577 58.5307C54.0602 58.8461 54.0038 59.1915 53.8064 59.458Z" fill="#C79F61"/>
<path d="M21.4007 9.5997C21.3018 9.50646 21.186 9.43284 21.0596 9.3827C20.8103 9.26863 20.5238 9.26863 20.2746 9.3827C20.1492 9.43501 20.034 9.5084 19.9335 9.5997C19.7444 9.79757 19.6374 10.0597 19.6338 10.3334C19.63 10.4689 19.6583 10.6034 19.7165 10.726C19.7689 10.8512 19.8423 10.9665 19.9333 11.0671C20.0337 11.1584 20.1491 11.2318 20.2745 11.2841C20.6589 11.449 21.105 11.3631 21.4007 11.0671C21.4918 10.9665 21.5652 10.8512 21.6177 10.726C21.6707 10.6018 21.6988 10.4684 21.7005 10.3334C21.6965 10.0597 21.5894 9.79781 21.4007 9.5997Z" fill="#C79F61"/>
<path d="M25.524 9.59971C25.4789 9.55054 25.4265 9.50864 25.3686 9.47559C25.3161 9.43454 25.2566 9.40305 25.193 9.38271C25.1313 9.35134 25.0648 9.33027 24.9962 9.3201C24.6592 9.25265 24.3107 9.3574 24.0668 9.59959C23.8778 9.79745 23.7708 10.0596 23.7671 10.3333C23.7617 10.8984 24.2154 11.3611 24.7806 11.3666C24.7872 11.3666 24.7938 11.3666 24.8004 11.3666C25.3695 11.3626 25.8299 10.9023 25.8337 10.3333C25.8306 10.0577 25.7194 9.79418 25.524 9.59971Z" fill="#C79F61"/>
<path d="M33.8009 9.59971C33.7502 9.55284 33.6947 9.51119 33.6354 9.47559C33.5828 9.43454 33.5234 9.40305 33.4598 9.38271C33.3981 9.35135 33.3316 9.33028 33.263 9.3201C32.926 9.25253 32.5774 9.3574 32.3335 9.59959C32.1445 9.79745 32.0374 10.0596 32.0338 10.3333C32.031 10.6082 32.139 10.8726 32.3335 11.067C32.434 11.1583 32.5493 11.2317 32.6746 11.2839C33.1941 11.5063 33.7955 11.2656 34.0179 10.7461C34.0738 10.6157 34.1019 10.4751 34.1005 10.3333C34.0965 10.0597 33.9895 9.79782 33.8009 9.59971Z" fill="#C79F61"/>
<path d="M28.9399 9.29407C28.6622 9.29249 28.3957 9.40257 28.2002 9.59971C27.8006 10.0072 27.8006 10.6595 28.2002 11.067C28.3946 11.2615 28.659 11.3695 28.9339 11.3667C29.4991 11.3722 29.9618 10.9184 29.9672 10.3533C29.9673 10.3466 29.9673 10.3401 29.9672 10.3334C29.9705 9.7627 29.5106 9.29734 28.9399 9.29407Z" fill="#C79F61"/>
<path d="M37.9342 9.59971C37.6867 9.35594 37.3341 9.2512 36.9936 9.32022C36.929 9.33185 36.8665 9.35304 36.808 9.38283C36.7419 9.40511 36.679 9.43635 36.6213 9.4757C36.5674 9.51397 36.5158 9.55538 36.4667 9.59983C36.2777 9.79769 36.1707 10.0599 36.167 10.3335C36.1616 10.8987 36.6153 11.3614 37.1805 11.3668C37.1871 11.3668 37.1938 11.3668 37.2003 11.3668C37.3354 11.3651 37.4687 11.337 37.5929 11.2841C37.7181 11.2316 37.8334 11.1582 37.934 11.0671C38.1265 10.8716 38.2341 10.6079 38.2338 10.3335C38.2298 10.0597 38.1227 9.79781 37.9342 9.59971Z" fill="#C79F61"/>
<path d="M41.3398 9.29407C41.0621 9.29249 40.7956 9.40257 40.6002 9.59971C40.4093 9.79649 40.302 10.0593 40.3005 10.3334C40.2977 10.6083 40.4057 10.8728 40.6002 11.0671C40.7006 11.1584 40.816 11.2318 40.9413 11.284C41.0654 11.3369 41.1989 11.3651 41.3339 11.3667C41.899 11.3722 42.3617 10.9184 42.3672 10.3533C42.3672 10.3466 42.3672 10.3401 42.3672 10.3334C42.3704 9.7627 41.9105 9.29734 41.3398 9.29407Z" fill="#C79F61"/>
<path d="M19.324 11.6663C19.0813 11.4214 18.7311 11.3162 18.3937 11.3868C18.329 11.3984 18.2665 11.4196 18.208 11.4494C18.1419 11.4717 18.0791 11.5029 18.0213 11.5423C17.9674 11.5806 17.9158 11.622 17.8669 11.6664C17.7734 11.7652 17.6998 11.881 17.6499 12.0075C17.597 12.1318 17.5689 12.2651 17.5672 12.4001C17.5617 12.9653 18.0155 13.428 18.5806 13.4334C18.5873 13.4334 18.5938 13.4334 18.6005 13.4334C19.1695 13.4294 19.6299 12.9691 19.6338 12.4001C19.6306 12.1243 19.5195 11.8609 19.324 11.6663Z" fill="#C79F61"/>
<path d="M23.6843 12.0074C23.632 11.8821 23.5587 11.7668 23.4673 11.6663C23.0531 11.2839 22.4144 11.2839 22 11.6663C21.9066 11.7651 21.8329 11.8809 21.783 12.0074C21.7249 12.13 21.6966 12.2644 21.7003 12.4C21.6995 12.6745 21.8071 12.9383 22 13.1337C22.4075 13.5333 23.0599 13.5333 23.4673 13.1337C23.6598 12.938 23.7675 12.6745 23.7671 12.4C23.7655 12.265 23.7374 12.1317 23.6843 12.0074Z" fill="#C79F61"/>
<path d="M27.6009 11.6663C27.5502 11.6194 27.4947 11.5778 27.4354 11.5422C27.3828 11.5011 27.3234 11.4696 27.2598 11.4493C27.198 11.4179 27.1316 11.3969 27.063 11.3867C26.726 11.3208 26.3782 11.4254 26.1335 11.6662C26.04 11.765 25.9664 11.8807 25.9165 12.0073C25.8636 12.1315 25.8355 12.2649 25.8338 12.3999C25.831 12.6748 25.939 12.9392 26.1335 13.1336C26.5354 13.5388 27.1897 13.5414 27.5949 13.1396C27.792 12.9442 27.9021 12.6775 27.9005 12.4C27.8965 12.1264 27.7895 11.8645 27.6009 11.6663Z" fill="#C79F61"/>
<path d="M31.951 12.0075C31.8987 11.8822 31.8253 11.7669 31.734 11.6664C31.6334 11.5754 31.5181 11.502 31.3929 11.4494C31.0082 11.2869 30.5635 11.3726 30.2667 11.6664C30.1733 11.7652 30.0996 11.881 30.0497 12.0075C29.9916 12.13 29.9633 12.2645 29.9671 12.4C29.9663 12.6745 30.074 12.9383 30.2669 13.1337C30.6653 13.5403 31.3178 13.547 31.7245 13.1486C32.0279 12.8512 32.1179 12.3982 31.951 12.0075Z" fill="#C79F61"/>
<path d="M35.1339 11.3667C34.5632 11.3667 34.1006 11.8293 34.1006 12.4C34.0978 12.6749 34.2058 12.9393 34.4003 13.1337C34.8022 13.5389 35.4565 13.5415 35.8617 13.1398C36.0588 12.9443 36.169 12.6777 36.1673 12.4001C36.1672 11.8293 35.7045 11.3667 35.1339 11.3667Z" fill="#C79F61"/>
<path d="M39.2733 11.3607C38.9956 11.3591 38.7291 11.4692 38.5336 11.6663C38.3428 11.8631 38.2355 12.1258 38.2339 12.4C38.2312 12.6749 38.3392 12.9394 38.5336 13.1337C38.9356 13.5389 39.5898 13.5416 39.995 13.1398C40.1921 12.9443 40.3022 12.6777 40.3006 12.4001C40.3039 11.8293 39.8439 11.364 39.2733 11.3607Z" fill="#C79F61"/>
</svg>
