<svg width="62" height="62" viewBox="0 0 62 62" fill="none" xmlns="http://www.w3.org/2000/svg">
<g clip-path="url(#clip0)">
<path d="M21.9206 17.2668L20.8721 17.6468C19.2538 18.2336 18.0465 19.6492 17.7211 21.3422L17.3653 23.2065C17.1878 24.13 17.4295 25.0757 18.0288 25.801C18.6283 26.5269 19.5123 26.9433 20.4537 26.9433H29.5426C30.4767 26.9433 31.3563 26.5324 31.9557 25.816C32.5546 25.1002 32.8038 24.1631 32.6394 23.2448L32.3076 21.3903C32.0001 19.6706 30.7888 18.232 29.146 17.6359L28.0344 17.233V15.5946C28.0344 15.5486 28.0299 15.5038 28.0233 15.4596C28.8342 14.6339 29.2987 13.5081 29.2987 12.3563V9.91516C29.2987 7.53228 27.36 5.59369 24.977 5.59369C22.594 5.59369 20.655 7.53228 20.655 9.91516V12.4323C20.655 13.6164 21.1432 14.6974 21.9283 15.4825C21.9237 15.5193 21.9206 15.5564 21.9206 15.5945V17.2668ZM30.5193 21.7099L30.851 23.5647C30.9206 23.9524 30.8153 24.348 30.5624 24.6502C30.309 24.953 29.9373 25.1267 29.5424 25.1267H20.4535C20.0557 25.1267 19.6822 24.9509 19.4289 24.6442C19.176 24.338 19.074 23.939 19.149 23.5483L19.5048 21.6839C19.7098 20.6168 20.471 19.7242 21.4907 19.3545L22.1776 19.1057C22.1948 19.1234 22.2121 19.1412 22.2308 19.1575C23.0134 19.8418 23.9951 20.184 24.9774 20.1839C25.9585 20.1839 26.94 19.8424 27.7227 19.1595C27.7509 19.1349 27.7768 19.1084 27.8015 19.0808L28.5261 19.3434C29.5619 19.719 30.3255 20.6258 30.5193 21.7099ZM22.4714 9.91516C22.4714 8.53397 23.5952 7.4101 24.9767 7.4101C26.1426 7.4101 27.1222 8.21174 27.4004 9.29189C27.2836 9.34893 27.1639 9.40282 27.0412 9.45186C25.9245 9.89894 25.0224 9.8396 24.7646 9.65893C24.3539 9.37097 23.7877 9.47026 23.4996 9.88101C23.2116 10.2918 23.311 10.858 23.7217 11.1461C24.1652 11.4572 24.7673 11.6127 25.4544 11.6127C26.0786 11.6127 26.7731 11.483 27.4821 11.2264V12.3561C27.4821 13.0503 27.195 13.7301 26.6943 14.2211C26.4625 14.4486 26.1969 14.6247 25.9118 14.7463C25.8918 14.7539 25.8722 14.7622 25.8529 14.7711C25.56 14.887 25.2471 14.9453 24.9273 14.9369C23.573 14.9109 22.4714 13.7873 22.4714 12.4322V9.91516ZM24.8924 16.7532C24.9201 16.7537 24.9476 16.7539 24.9753 16.7539C25.4015 16.7539 25.819 16.6899 26.2179 16.567V18.02C25.4609 18.4867 24.4933 18.4864 23.7373 18.0192V16.5696C24.1047 16.6809 24.4918 16.7455 24.8924 16.7532Z" fill="#C79F61"/>
<path d="M10.6882 42.4923H38.9721C39.4738 42.4923 39.8803 42.0858 39.8803 41.5841C39.8803 41.0824 39.4738 40.6759 38.9721 40.6759H10.6882C10.1865 40.6759 9.78003 41.0824 9.78003 41.5841C9.78003 42.0858 10.1865 42.4923 10.6882 42.4923Z" fill="#C79F61"/>
<path d="M10.6882 47.3894H38.9721C39.4738 47.3894 39.8803 46.9829 39.8803 46.4812C39.8803 45.9795 39.4738 45.573 38.9721 45.573H10.6882C10.1865 45.573 9.78003 45.9795 9.78003 46.4812C9.78003 46.9829 10.1865 47.3894 10.6882 47.3894Z" fill="#C79F61"/>
<path d="M10.6882 52.2863H38.9721C39.4738 52.2863 39.8803 51.8798 39.8803 51.3781C39.8803 50.8765 39.4738 50.4699 38.9721 50.4699H10.6882C10.1865 50.4699 9.78003 50.8765 9.78003 51.3781C9.78003 51.8798 10.1865 52.2863 10.6882 52.2863Z" fill="#C79F61"/>
<path d="M10.6882 57.1835H38.9721C39.4738 57.1835 39.8803 56.777 39.8803 56.2753C39.8803 55.7736 39.4738 55.3671 38.9721 55.3671H10.6882C10.1865 55.3671 9.78003 55.7736 9.78003 56.2753C9.78003 56.777 10.1865 57.1835 10.6882 57.1835Z" fill="#C79F61"/>
<path d="M9.78003 31.79C9.78003 32.2917 10.1865 32.6982 10.6882 32.6982H38.9721C39.4738 32.6982 39.8803 32.2917 39.8803 31.79C39.8803 31.2883 39.4738 30.8818 38.9721 30.8818H10.6882C10.1865 30.8818 9.78003 31.2884 9.78003 31.79Z" fill="#C79F61"/>
<path d="M10.6882 37.5952H38.9721C39.4738 37.5952 39.8803 37.1887 39.8803 36.687C39.8803 36.1854 39.4738 35.7788 38.9721 35.7788H10.6882C10.1865 35.7788 9.78003 36.1854 9.78003 36.687C9.78003 37.1887 10.1865 37.5952 10.6882 37.5952Z" fill="#C79F61"/>
<path d="M7.33454 42.4957C7.83805 42.4957 8.24625 42.0876 8.24625 41.5841C8.24625 41.0807 7.83805 40.6725 7.33454 40.6725C6.83103 40.6725 6.42294 41.0806 6.42294 41.5841C6.42294 42.0876 6.83115 42.4957 7.33454 42.4957Z" fill="#C79F61"/>
<path d="M7.33454 32.7016C7.83805 32.7016 8.24625 32.2935 8.24625 31.79C8.24625 31.2865 7.83805 30.8784 7.33454 30.8784C6.83103 30.8784 6.42294 31.2865 6.42294 31.79C6.42294 32.2935 6.83115 32.7016 7.33454 32.7016Z" fill="#C79F61"/>
<path d="M7.33454 37.5986C7.83805 37.5986 8.24625 37.1905 8.24625 36.687C8.24625 36.1835 7.83805 35.7755 7.33454 35.7755C6.83103 35.7755 6.42294 36.1835 6.42294 36.687C6.42294 37.1905 6.83115 37.5986 7.33454 37.5986Z" fill="#C79F61"/>
<path d="M7.33454 47.3927C7.83805 47.3927 8.24625 46.9846 8.24625 46.4811C8.24625 45.9776 7.83805 45.5695 7.33454 45.5695C6.83103 45.5695 6.42294 45.9776 6.42294 46.4811C6.42294 46.9846 6.83115 47.3927 7.33454 47.3927Z" fill="#C79F61"/>
<path d="M7.33454 52.2899C7.83805 52.2899 8.24625 51.8818 8.24625 51.3783C8.24625 50.8748 7.83805 50.4667 7.33454 50.4667C6.83103 50.4667 6.42294 50.8748 6.42294 51.3783C6.42294 51.8817 6.83115 52.2899 7.33454 52.2899Z" fill="#C79F61"/>
<path d="M7.33454 57.1869C7.83805 57.1869 8.24625 56.7788 8.24625 56.2753C8.24625 55.7719 7.83805 55.3637 7.33454 55.3637C6.83103 55.3637 6.42294 55.7718 6.42294 56.2753C6.42294 56.7787 6.83115 57.1869 7.33454 57.1869Z" fill="#C79F61"/>
<path d="M58.8068 14.3037C58.4403 13.8399 58.094 13.4017 57.9265 12.998C57.7459 12.5621 57.6746 11.9863 57.5993 11.3765C57.4672 10.3082 57.3175 9.09741 56.4725 8.25254C55.6276 7.40767 54.4166 7.258 53.3483 7.12588C52.7384 7.05056 52.1623 6.97936 51.7265 6.79869C51.3227 6.63122 50.8846 6.28513 50.4207 5.91858C49.7824 5.41422 49.0804 4.86046 48.2504 4.60919V4.33443C48.2505 1.94452 46.3059 0 43.9156 0H6.08061C3.69034 0 1.7457 1.94452 1.7457 4.33455V7.84009C1.7457 8.34179 2.15221 8.7483 2.6539 8.7483C3.15559 8.7483 3.5621 8.34179 3.5621 7.84009V4.33455C3.5621 2.94597 4.69191 1.81641 6.08061 1.81641H43.9156C45.3043 1.81641 46.4341 2.94597 46.4341 4.33455V4.60943C45.6044 4.86082 44.9027 5.41434 44.2644 5.9187C43.8005 6.28513 43.3623 6.63134 42.9586 6.79881C42.5228 6.97936 41.9468 7.05056 41.3368 7.126C40.2685 7.258 39.0577 7.40767 38.2126 8.25254C37.3675 9.09753 37.2178 10.3083 37.0857 11.3766C37.0104 11.9863 36.9392 12.5623 36.7585 12.9981C36.591 13.4018 36.2448 13.84 35.8783 14.3038C35.1997 15.1625 34.4307 16.1357 34.4307 17.3817C34.4307 18.6276 35.1998 19.6008 35.8783 20.4595C36.2447 20.9233 36.591 21.3615 36.7585 21.7653C36.9392 22.2011 37.0104 22.7769 37.0857 23.3868C37.2178 24.455 37.3675 25.6658 38.2125 26.5107C39.0575 27.3557 40.2684 27.5052 41.3367 27.6373C41.6552 27.6767 41.9638 27.7153 42.2488 27.7686V41.4967C42.2488 42.0347 42.5491 42.5152 43.0326 42.7506C43.516 42.9863 44.0795 42.9265 44.5034 42.5946L46.434 41.083V57.6656C46.434 59.0542 45.3042 60.1837 43.9155 60.1837H6.08061C4.69191 60.1837 3.5621 59.0542 3.5621 57.6656V11.8395C3.5621 11.3378 3.15559 10.9313 2.6539 10.9313C2.15221 10.9313 1.7457 11.3378 1.7457 11.8395V57.6654C1.7457 60.0555 3.69034 62 6.08061 62H43.9156C46.3059 62 48.2505 60.0555 48.2505 57.6654V41.0829L50.1811 42.5944C50.4331 42.7917 50.7346 42.893 51.0396 42.893C51.2474 42.893 51.4566 42.8459 51.6528 42.7503C52.1364 42.5149 52.437 42.0344 52.437 41.4965V31.3613C52.437 30.8597 52.0305 30.4531 51.5288 30.4531C51.0271 30.4531 50.6206 30.8597 50.6206 31.3613V40.6317L48.2063 38.7415C47.9623 38.5484 47.6555 38.4419 47.3422 38.4419C47.0289 38.4419 46.7221 38.5484 46.482 38.7384L44.065 40.6307V28.6878C44.1309 28.7394 44.1972 28.7916 44.2642 28.8445C45.123 29.5231 46.0964 30.292 47.3424 30.292C48.5884 30.292 49.5617 29.523 50.4205 28.8447C50.8844 28.4782 51.3227 28.1319 51.7264 27.9644C52.1622 27.7839 52.7383 27.7127 53.3482 27.6372C54.4165 27.5052 55.6273 27.3556 56.4725 26.5107C57.3174 25.6657 57.4671 24.4549 57.5992 23.3867C57.6746 22.7769 57.7459 22.201 57.9265 21.7652C58.094 21.3614 58.4402 20.9232 58.8068 20.4594C59.4854 19.6007 60.2543 18.6275 60.2543 17.3816C60.2543 16.1356 59.4852 15.1624 58.8068 14.3037ZM57.3816 19.3332C56.9544 19.8739 56.5126 20.4329 56.2488 21.0693C55.9735 21.7329 55.8836 22.4603 55.7966 23.1638C55.6911 24.017 55.5916 24.8229 55.1884 25.2261C54.785 25.6294 53.979 25.7289 53.1256 25.8344C52.4221 25.9213 51.6948 26.0112 51.031 26.2864C50.3945 26.5503 49.8355 26.9919 49.2948 27.4191C48.6072 27.9622 47.9577 28.4754 47.3427 28.4754C46.7277 28.4754 46.0782 27.9624 45.3905 27.4191C44.8499 26.992 44.2909 26.5503 43.6544 26.2864C43.6106 26.2683 43.4585 26.2104 43.4257 26.2002C42.8254 25.9914 42.1833 25.9114 41.5596 25.8344C40.7063 25.7289 39.9003 25.6292 39.4969 25.226C39.0938 24.8229 38.9941 24.017 38.8887 23.1639C38.8017 22.4603 38.7119 21.7332 38.4366 21.0693C38.1726 20.4329 37.731 19.8739 37.3038 19.3332C36.7607 18.6457 36.2475 17.9963 36.2475 17.3816C36.2475 16.7668 36.7606 16.1175 37.3038 15.4299C37.731 14.8892 38.1727 14.3302 38.4366 13.6938C38.7119 13.0302 38.8018 12.3028 38.8887 11.5993C38.9941 10.7461 39.0938 9.94022 39.497 9.53698C39.9004 9.13374 40.7064 9.0342 41.5597 8.92873C42.2633 8.84178 42.9906 8.75193 43.6544 8.47668C44.2909 8.21282 44.8499 7.77119 45.3905 7.34397C46.0768 6.80184 46.7251 6.28985 47.3391 6.28791C47.3401 6.28791 47.3414 6.28803 47.3424 6.28803C47.3437 6.28803 47.3449 6.28791 47.3461 6.28791C47.9601 6.28973 48.6085 6.80184 49.2948 7.34397C49.8355 7.77107 50.3945 8.21282 51.031 8.47668C51.6947 8.75193 52.4222 8.8419 53.1258 8.92873C53.9791 9.0342 54.7851 9.13386 55.1884 9.5371C55.5916 9.94034 55.6913 10.7461 55.7967 11.5993C55.8837 12.3028 55.9735 13.0301 56.2488 13.6938C56.5128 14.3302 56.9544 14.8892 57.3816 15.4299C57.9247 16.1175 58.4379 16.7668 58.4379 17.3816C58.4379 17.9963 57.9248 18.6458 57.3816 19.3332Z" fill="#C79F61"/>
<path d="M53.1734 14.4954L50.0828 13.621L48.2958 10.9521C48.0823 10.6334 47.7261 10.4433 47.3426 10.4433C46.9591 10.4433 46.6027 10.6335 46.3893 10.9521L44.6023 13.621L41.5115 14.4955C41.1424 14.6 40.8513 14.8804 40.7329 15.2451C40.6145 15.6098 40.6854 16.0076 40.9225 16.3087L42.9088 18.8326L42.7856 22.0413C42.7707 22.4246 42.947 22.7882 43.2573 23.0138C43.4565 23.1585 43.6926 23.2333 43.9312 23.2333C44.0647 23.2333 44.1989 23.2099 44.3277 23.1625L47.3423 22.0535L50.3567 23.1623C50.7167 23.2951 51.1167 23.2394 51.4271 23.014C51.7374 22.7886 51.914 22.4252 51.8992 22.0417L51.7759 18.8325L53.7624 16.3086C53.9995 16.0071 54.0703 15.6096 53.9517 15.2449C53.8337 14.8801 53.5426 14.5999 53.1734 14.4954ZM50.196 17.9034C50.0282 18.117 49.9414 18.3841 49.9517 18.6564L50.0459 21.1127L47.7387 20.264C47.483 20.1699 47.2015 20.17 46.9464 20.2638L44.6389 21.1127L44.7332 18.6556C44.7434 18.3842 44.6565 18.1171 44.4883 17.9027L42.9681 15.9711L45.3341 15.3018C45.5958 15.2275 45.8233 15.0621 45.9746 14.8362L47.3423 12.7933L48.71 14.8359C48.8613 15.062 49.0889 15.2274 49.351 15.3019L51.7166 15.9711L50.196 17.9034Z" fill="#C79F61"/>
</g>
<defs>
<clipPath id="clip0">
<rect width="62" height="62" fill="white"/>
</clipPath>
</defs>
</svg>
