<svg width="62" height="62" viewBox="0 0 62 62" fill="none" xmlns="http://www.w3.org/2000/svg">
<g clip-path="url(#clip0)">
<path d="M38.9143 7.7253C32.0945 4.27921 23.8794 5.59684 18.4724 11.0039C12.1882 17.288 11.5592 27.308 17.0095 34.3114C17.2021 34.5589 17.4901 34.6885 17.7812 34.6885C17.9909 34.6885 18.2022 34.6212 18.3806 34.4824C18.8065 34.1509 18.883 33.5371 18.5517 33.1112C13.7056 26.8843 14.2657 17.9742 19.8543 12.3856C24.663 7.57672 31.9683 6.40477 38.0332 9.4693C38.5147 9.71294 39.1025 9.51943 39.3459 9.03784C39.5891 8.55625 39.3961 7.96858 38.9143 7.7253Z" fill="#C79F61"/>
<path d="M46.7165 15.529C46.4731 15.0474 45.8857 14.8541 45.4037 15.0973C44.9221 15.3405 44.7287 15.9281 44.972 16.4099C48.0344 22.4738 46.8618 29.7782 42.0543 34.5856C36.4655 40.1741 27.5556 40.7341 21.3287 35.8883C20.9026 35.5569 20.2889 35.6335 19.9575 36.0592C19.6261 36.4851 19.7027 37.099 20.1286 37.4304C23.3187 39.9131 27.1345 41.1342 30.9382 41.1342C35.4849 41.1342 40.0144 39.3891 43.4362 35.9673C48.8419 30.5617 50.1602 22.3481 46.7165 15.529Z" fill="#C79F61"/>
<path d="M44.192 11.8076C43.95 11.5337 43.6957 11.2632 43.4362 11.0038C43.1767 10.7443 42.9063 10.49 42.6324 10.2479C42.228 9.89047 41.6104 9.92874 41.2533 10.3331C40.8957 10.7373 40.9338 11.3547 41.3381 11.7121C41.5821 11.9276 41.8231 12.1543 42.0544 12.3855C42.2854 12.6168 42.5121 12.8576 42.7278 13.1016C42.9208 13.3201 43.1899 13.4316 43.4603 13.4316C43.6902 13.4316 43.921 13.3509 44.1069 13.1867C44.5114 12.8294 44.5494 12.212 44.192 11.8076Z" fill="#C79F61"/>
<path d="M54.0159 25.2372C54.6674 24.1683 54.6674 22.8406 54.0157 21.772L52.7302 19.6641C52.561 19.3863 52.4954 19.0564 52.5461 18.7353L52.9292 16.3009C53.1245 15.0603 52.6148 13.8309 51.5993 13.0921L49.6072 11.6431C49.3439 11.4514 49.1566 11.1718 49.08 10.8552L48.4998 8.45768C48.2053 7.23984 47.2658 6.3004 46.048 6.00565L43.6504 5.42537C43.3338 5.34872 43.054 5.16151 42.8625 4.89813L41.4133 2.90553C40.6746 1.89003 39.445 1.3801 38.2048 1.57555L35.7696 1.95869C35.4484 2.00919 35.1185 1.9438 34.8409 1.77451L32.7327 0.488731C31.6639 -0.162996 30.3362 -0.162875 29.2674 0.488731L27.1594 1.77414C26.8819 1.94355 26.5522 2.0087 26.2306 1.95833L23.7962 1.57519C22.5559 1.37998 21.3262 1.88967 20.5875 2.90516L19.1385 4.89728C18.9468 5.16066 18.6671 5.34787 18.3505 5.42452L15.9529 6.00468C14.7353 6.29918 13.7956 7.23875 13.5009 8.45647L12.9206 10.8541C12.8439 11.1707 12.6569 11.4505 12.3934 11.642L10.4008 13.0912C9.38526 13.8298 8.8757 15.0591 9.07078 16.2997L9.45392 18.7351C9.50442 19.0563 9.43903 19.3862 9.26974 19.6637L7.98408 21.7721C7.3326 22.8409 7.3326 24.1685 7.9842 25.2372L9.26962 27.3452C9.43891 27.623 9.50442 27.9528 9.4538 28.274L9.07066 30.7085C8.87533 31.9489 9.38502 33.1785 10.4005 33.9172L12.3926 35.3662C12.656 35.5577 12.8432 35.8375 12.9199 36.1541L13.5 38.5516C13.7945 39.7694 14.7341 40.7089 15.9518 41.0036L16.953 41.2459L10.1773 56.3602C10.0334 56.6814 10.0732 57.0551 10.2818 57.3387C10.4904 57.6223 10.8351 57.7719 11.1848 57.73L16.6367 57.0781L19.7774 61.5817C19.9612 61.8451 20.2612 61.9999 20.5786 61.9999C20.609 61.9999 20.6397 61.9984 20.6703 61.9956C21.0207 61.9627 21.3265 61.7436 21.4704 61.4226L28.3904 45.9857L29.2672 46.5203C29.8016 46.8462 30.4006 47.009 30.9998 47.009C31.599 47.009 32.198 46.8461 32.7324 46.5203L33.6409 45.9664L40.5695 61.4226C40.7135 61.7439 41.0191 61.9627 41.3697 61.9956C41.4003 61.9985 41.431 62 41.4614 62C41.7788 62 42.0788 61.8452 42.2625 61.5819L45.4032 57.0783L50.8551 57.7301C51.2046 57.7716 51.5496 57.6224 51.7581 57.3388C51.9666 57.0552 52.0067 56.6815 51.8626 56.3603L45.0834 41.2377L46.0469 41.0046C47.2645 40.7101 48.2042 39.7705 48.499 38.5528L49.0793 36.1552C49.1559 35.8386 49.3431 35.5588 49.6065 35.3673L51.5991 33.9181C52.6146 33.1795 53.1242 31.9502 52.9291 30.7096L52.5459 28.2742C52.4954 27.953 52.5608 27.6231 52.7301 27.3456L54.0159 25.2372ZM20.3932 59.0487L17.9042 55.4796C17.6979 55.1836 17.345 55.0252 16.9868 55.0683L12.6663 55.5849L18.8396 41.8137C18.9524 41.8967 19.0536 41.9961 19.1371 42.111L20.5863 44.1036C20.724 44.2929 20.8788 44.4645 21.0475 44.6173L17.7981 51.8656C17.5775 52.3581 17.7977 52.9361 18.29 53.1569C18.4198 53.2151 18.5556 53.2426 18.689 53.2426C19.0622 53.2426 19.4187 53.0275 19.5811 52.665L22.8189 45.4425C23.1375 45.4862 23.4656 45.4854 23.7948 45.4336L26.23 45.0505C26.3758 45.0276 26.5232 45.0296 26.6667 45.0534L20.3932 59.0487ZM49.3739 55.5847L45.0533 55.0683C44.6947 55.0253 44.3422 55.1836 44.1358 55.4796L41.6469 59.0487L35.3707 45.0479C35.5023 45.03 35.6366 45.03 35.7695 45.0508L38.2038 45.434C38.5464 45.4879 38.8878 45.4862 39.2185 45.4369L42.4587 52.6652C42.6213 53.0279 42.9776 53.2428 43.3508 53.2428C43.4844 53.2428 43.6201 53.2154 43.7498 53.1571C44.2422 52.9365 44.4624 52.3583 44.2417 51.8659L40.98 44.59C41.1373 44.4439 41.2827 44.2823 41.4124 44.104L42.8615 42.1119C42.9528 41.9863 43.0646 41.8787 43.1903 41.7916L49.3739 55.5847ZM52.3473 24.2198L51.0617 26.3281C50.6518 27.0007 50.4932 27.7997 50.6156 28.5778L50.9987 31.013C51.0793 31.5251 50.8688 32.0326 50.4497 32.3375L48.457 33.7869C47.8192 34.2509 47.3655 34.9287 47.18 35.6954L46.5997 38.093C46.478 38.5957 46.0903 38.9835 45.5875 39.1052L43.1899 39.6854C42.4231 39.8709 41.7452 40.3245 41.2812 40.9625L39.8322 42.9546C39.5272 43.3739 39.0199 43.5841 38.5075 43.5035L36.073 43.1204C35.2948 42.9979 34.4957 43.1563 33.823 43.5665L31.7151 44.8519C31.274 45.1207 30.7257 45.1207 30.2848 44.8519L28.1764 43.5663C27.652 43.2465 27.0509 43.0799 26.4427 43.0799C26.2707 43.0799 26.0979 43.0932 25.9266 43.1202L23.4913 43.5034C22.979 43.584 22.4716 43.3734 22.1667 42.9543L20.7174 40.9617C20.2533 40.3239 19.5756 39.8703 18.8089 39.6848L16.4113 39.1045C15.9086 38.9828 15.5207 38.5951 15.399 38.0923L14.8189 35.6948C14.6334 34.928 14.1799 34.25 13.5418 33.7859L11.5498 32.3368C11.1306 32.0319 10.9202 31.5243 11.0009 31.0122L11.384 28.5777C11.5065 27.7994 11.3481 27.0004 10.9379 26.3278L9.65252 24.2196C9.38357 23.7785 9.38357 23.2303 9.65252 22.7893L10.9382 20.6809C11.3482 20.0084 11.5067 19.2094 11.3843 18.4312L11.0011 15.996C10.9206 15.4839 11.1311 14.9764 11.5502 14.6715L13.5429 13.2221C14.1807 12.7581 14.6343 12.0803 14.8198 11.3137L15.4001 8.91603C15.5218 8.41336 15.9096 8.0255 16.4123 7.9038L18.81 7.32364C19.5768 7.13812 20.2547 6.68451 20.7186 6.04658L22.1676 4.05446C22.4725 3.63524 22.9799 3.42466 23.4922 3.50542L25.9267 3.88857C26.7051 4.01123 27.5042 3.8526 28.1767 3.44246L30.2846 2.15704C30.7258 1.88821 31.2741 1.88821 31.715 2.15704L33.8234 3.44258C34.4959 3.85284 35.2951 4.01136 36.0732 3.88881L38.5085 3.50567C39.0205 3.42538 39.5281 3.6356 39.833 4.05471L41.2824 6.04731C41.7464 6.68511 42.4242 7.13873 43.1908 7.32424L45.5885 7.90453C46.0911 8.02623 46.479 8.41397 46.6007 8.91675L47.1809 11.3143C47.3664 12.0811 47.8199 12.7591 48.4579 13.2231L50.45 14.6721C50.8693 14.977 51.0796 15.4846 50.999 15.9968L50.6158 18.4312C50.4934 19.2095 50.6518 20.0085 51.0619 20.6812L52.3473 22.7893C52.6164 23.2304 52.6164 23.7786 52.3473 24.2198Z" fill="#C79F61"/>
<path d="M42.4333 20.4645C42.218 19.8016 41.6543 19.3388 40.9621 19.2567L35.0829 18.5596L32.6031 13.1836C32.3112 12.5508 31.6969 12.1576 30.9999 12.1576C30.303 12.1576 29.6885 12.5508 29.3966 13.1836L26.9168 18.5597L21.0376 19.2568C20.3454 19.3389 19.7816 19.8018 19.5664 20.4646C19.3511 21.1271 19.5352 21.833 20.0467 22.3061L24.3933 26.3258L23.2395 32.1328C23.1038 32.8165 23.3697 33.4956 23.9337 33.9051C24.2447 34.1311 24.6057 34.2455 24.969 34.2455C25.2644 34.2455 25.561 34.1699 25.8336 34.0173L30.9997 31.1257L36.1658 34.0173C36.7741 34.3579 37.502 34.3149 38.0659 33.9052C38.6299 33.4956 38.8958 32.8163 38.7599 32.1328L37.6061 26.3259L41.9528 22.3062C42.4646 21.8331 42.6486 21.1274 42.4333 20.4645ZM35.878 25.2626C35.6286 25.4933 35.5169 25.8371 35.583 26.1703L36.7637 32.1125L31.477 29.1534C31.3287 29.0704 31.1643 29.0289 30.9997 29.0289C30.8352 29.0289 30.6708 29.0703 30.5225 29.1534L25.2358 32.1125L26.4164 26.1703C26.4828 25.837 26.371 25.4933 26.1215 25.2626L21.6734 21.1491L27.6901 20.4357C28.0275 20.3957 28.3199 20.1832 28.4623 19.8748L30.9999 14.3734L33.5374 19.8748C33.6798 20.1832 33.9721 20.3957 34.3096 20.4357L40.326 21.1491L35.878 25.2626Z" fill="#C79F61"/>
</g>
<defs>
<clipPath id="clip0">
<rect width="62" height="62" fill="white"/>
</clipPath>
</defs>
</svg>
