<svg width="62" height="62" viewBox="0 0 62 62" fill="none" xmlns="http://www.w3.org/2000/svg">
<path d="M55.1973 7.58036C47.4624 7.09599 39.5486 4.60508 31.6754 0.176918C31.2558 -0.0589728 30.7441 -0.0589728 30.3245 0.176918C22.4513 4.6052 14.5375 7.09611 6.80257 7.58036C6.07662 7.62577 5.51099 8.22797 5.51099 8.95551V35.1334C5.51099 39.4651 6.86276 43.5872 9.5284 47.3852C11.6225 50.3686 14.5273 53.1523 18.1622 55.6589C24.2864 59.8821 30.3235 61.852 30.5774 61.9338C30.7148 61.978 30.8573 62 30.9997 62C31.1421 62 31.2846 61.9778 31.422 61.9338C31.676 61.8519 37.713 59.8819 43.8372 55.6589C47.4721 53.1525 50.3769 50.3688 52.471 47.3852C55.137 43.5872 56.4888 39.4651 56.4888 35.1334V8.95563C56.4889 8.22797 55.9233 7.62589 55.1973 7.58036ZM53.7334 35.1334C53.7334 41.987 49.8957 48.1172 42.3267 53.3535C37.4268 56.7434 32.4525 58.6471 30.9995 59.1652C29.5526 58.6505 24.6218 56.7661 19.7266 53.3903C12.1222 48.1465 8.2666 42.0041 8.2666 35.1334V10.2323C15.7808 9.55928 23.4185 7.11427 30.9999 2.95372C38.5815 7.11403 46.219 9.55916 53.7333 10.2323V35.1334H53.7334Z" fill="#C79F61"/>
<path d="M36.1476 36.125C35.9526 34.9549 35.7523 33.7529 35.5746 32.5618C37.8744 31.0399 39.2667 28.4834 39.2667 25.6756C39.2667 21.1173 35.5583 17.4088 30.9999 17.4088C26.4416 17.4088 22.7332 21.1172 22.7332 25.6756C22.7332 28.4834 24.1253 31.0399 26.4253 32.5617C26.2476 33.7528 26.0473 34.9548 25.8522 36.1249C25.4532 38.5198 25.0403 40.996 24.8061 43.4559C24.7693 43.8423 24.8972 44.2262 25.1584 44.5135C25.4194 44.8007 25.7895 44.9644 26.1776 44.9644H35.822C36.2101 44.9644 36.5803 44.8007 36.8413 44.5135C37.1025 44.2264 37.2302 43.8424 37.1935 43.4559C36.9596 40.9961 36.5468 38.5198 36.1476 36.125ZM32.7134 32.0277C32.925 33.5507 33.1814 35.0898 33.4295 36.578C33.7379 38.4288 34.0547 40.3294 34.2853 42.2089H27.7145C27.9452 40.3295 28.2619 38.4288 28.5704 36.578C28.8184 35.0898 29.075 33.5507 29.2865 32.0277C29.3677 31.4424 29.0667 30.8705 28.5383 30.606C26.6574 29.6646 25.489 27.7752 25.489 25.6756C25.489 22.6367 27.9612 20.1645 31.0001 20.1645C34.0389 20.1645 36.5112 22.6367 36.5112 25.6756C36.5112 27.7755 35.3427 29.6646 33.4615 30.606C32.9332 30.8704 32.6323 31.4423 32.7134 32.0277Z" fill="#C79F61"/>
<path d="M30.3733 6.40394C24.3366 9.4876 18.2157 11.5441 12.1808 12.5168C11.513 12.6244 11.0222 13.2007 11.0222 13.877V35.1334C11.0222 40.9811 14.4082 46.3126 21.0863 50.98C24.7672 53.5522 28.5547 55.242 30.4849 56.0201C30.6501 56.0869 30.8252 56.1202 31.0001 56.1202C31.1749 56.1202 31.35 56.0869 31.5152 56.0201C32.5291 55.6113 34.1156 54.9274 35.9149 53.9912C36.5899 53.64 36.8525 52.8081 36.5012 52.133C36.1501 51.4579 35.3181 51.1956 34.6432 51.5468C33.2214 52.2866 31.9414 52.8591 31.0002 53.2528C29.0719 52.4461 25.8205 50.9266 22.665 48.7212C16.7679 44.5999 13.7778 40.0282 13.7778 35.1334V15.0381C19.5091 13.9911 25.2945 12.0215 31.0001 9.17433C36.7058 12.0215 42.491 13.9911 48.2223 15.0381V35.1334C48.2223 38.76 46.57 42.2314 43.311 45.4512C42.7697 45.9861 42.7643 46.8583 43.2992 47.3996C43.8342 47.941 44.7063 47.9462 45.2476 47.4113C49.0498 43.6546 50.9778 39.5239 50.9778 35.1334V13.877C50.9778 13.2007 50.4869 12.6243 49.8192 12.5168C43.7842 11.5441 37.6633 9.4876 31.6267 6.40394C31.2329 6.2028 30.7668 6.2028 30.3733 6.40394Z" fill="#C79F61"/>
<path d="M39.0973 48.8931C39.0545 48.9363 39.0117 48.9792 38.9687 49.0217C38.4278 49.557 38.4234 50.4295 38.9587 50.9701C39.2282 51.2424 39.5829 51.3787 39.9378 51.3787C40.288 51.3787 40.6385 51.246 40.907 50.9801C40.956 50.9314 41.005 50.8824 41.054 50.8331C41.5898 50.2927 41.5858 49.4203 41.0454 48.8847C40.5053 48.3491 39.6332 48.3527 39.0973 48.8931Z" fill="#C79F61"/>
</svg>
