<svg width="62" height="62" viewBox="0 0 62 62" fill="none" xmlns="http://www.w3.org/2000/svg">
<path d="M55.8858 59.5781H31.0108C15.2528 59.5781 2.43269 46.758 2.43269 31C2.43269 15.242 15.2528 2.42188 31.0108 2.42188C37.2131 2.42188 43.1763 4.41714 48.0915 8.08773H46.7624C46.0938 8.08773 45.5515 8.62999 45.5515 9.29867C45.5515 9.96735 46.0938 10.5096 46.7624 10.5096H51.3609C52.0295 10.5096 52.5718 9.96735 52.5718 9.29867V4.70025C52.5718 4.03157 52.0295 3.48932 51.3609 3.48932C50.6922 3.48932 50.1499 4.03157 50.1499 4.70025V6.61414C44.7052 2.33396 37.9977 0 31.0108 0C22.7304 0 14.9457 3.22461 9.09043 9.07961C3.23542 14.9349 0.0108185 22.7196 0.0108185 31C0.0108185 39.2804 3.23542 47.0651 9.09043 52.9204C14.9457 58.7755 22.7304 62 31.0108 62H55.8858C56.5545 62 57.0967 61.4577 57.0967 60.7891C57.0967 60.1204 56.5545 59.5781 55.8858 59.5781Z" fill="#C79F61"/>
<path d="M13.1118 18.3106C12.5462 17.954 11.7983 18.1236 11.4417 18.6894C8.6926 23.0509 7.47924 28.2922 8.0255 33.448C8.57974 38.6811 10.9382 43.6162 14.666 47.3442C19.1722 51.8502 25.0911 54.1031 31.0102 54.1031C36.9293 54.1031 42.8482 51.8502 47.3543 47.3442C56.3664 38.332 56.3664 23.668 47.3543 14.656C43.6205 10.9223 38.6775 8.56315 33.4358 8.01314C28.2707 7.47076 23.0232 8.69417 18.66 11.4568C18.0949 11.8146 17.9268 12.5628 18.2846 13.1278C18.6424 13.6928 19.3905 13.8608 19.9555 13.5032C28.0519 8.37666 38.8548 9.58179 45.6417 16.3687C53.7095 24.4366 53.7095 37.5639 45.6417 45.6318C41.6073 49.6661 36.3097 51.6832 31.0102 51.6827C25.712 51.6821 20.4121 49.6653 16.3787 45.6318C9.49654 38.7496 8.30898 28.2016 13.4906 19.981C13.8472 19.415 13.6777 18.6672 13.1118 18.3106Z" fill="#C79F61"/>
<path d="M18.0883 25.4326C16.1554 25.4326 14.583 27.005 14.583 28.9379C14.583 29.6066 15.1252 30.1488 15.7939 30.1488C16.4626 30.1488 17.0048 29.6066 17.0048 28.9379C17.0048 28.3404 17.4909 27.8545 18.0883 27.8545C19.0431 27.8545 19.1718 28.4021 19.1718 28.9379C19.1718 30.6892 16.6594 33.1957 15.0765 34.3636C14.655 34.6737 14.4801 35.2194 14.6433 35.7167C14.8065 36.2139 15.2706 36.5502 15.7939 36.5502H20.3829C21.0515 36.5502 21.5938 36.008 21.5938 35.3393C21.5938 34.6706 21.0515 34.1283 20.3829 34.1283H18.9563C20.2626 32.7364 21.5938 30.8491 21.5938 28.938C21.5937 26.8413 20.1849 25.4326 18.0883 25.4326Z" fill="#C79F61"/>
<path d="M24.1451 25.4326C23.4764 25.4326 22.9342 25.9749 22.9342 26.6435V30.9952C22.9342 31.6638 23.4764 32.2061 24.1451 32.2061H27.1108V35.3565C27.1108 36.0252 27.6531 36.5674 28.3218 36.5674C28.9905 36.5674 29.5327 36.0252 29.5327 35.3565V26.6437C29.5327 25.975 28.9905 25.4327 28.3218 25.4327C27.6531 25.4327 27.1108 25.975 27.1108 26.6437V29.7843H25.3561V26.6437C25.3561 25.9749 24.8138 25.4326 24.1451 25.4326Z" fill="#C79F61"/>
<path d="M33.3193 36.5505C33.7792 36.5505 34.2189 36.2871 34.422 35.8413L38.3831 27.1456C38.6603 26.537 38.3916 25.8189 37.7831 25.5416C37.1742 25.2643 36.4565 25.533 36.1791 26.1416L32.218 34.8373C31.9408 35.446 32.2095 36.164 32.818 36.4413C32.9809 36.5155 33.1515 36.5505 33.3193 36.5505Z" fill="#C79F61"/>
<path d="M43.2698 36.4991C43.3858 36.534 43.503 36.5506 43.6182 36.5506C44.1392 36.5506 44.6201 36.2118 44.7776 35.6872L47.3863 26.9914C47.4962 26.6249 47.4265 26.2277 47.1979 25.9206C46.9694 25.6135 46.6092 25.4326 46.2264 25.4326H41.009C40.3403 25.4326 39.7981 25.9749 39.7981 26.6435C39.7981 27.3122 40.3403 27.8545 41.009 27.8545H44.5989L42.4579 34.9914C42.2657 35.6318 42.6292 36.3069 43.2698 36.4991Z" fill="#C79F61"/>
<path d="M15.5229 14.3012C15.2032 14.3012 14.8908 14.4307 14.6655 14.6561C14.4404 14.8812 14.3107 15.1936 14.3107 15.5121C14.3107 15.8306 14.4403 16.143 14.6655 16.3682C14.8908 16.5935 15.2032 16.723 15.5229 16.723C15.8414 16.723 16.1538 16.5936 16.379 16.3682C16.6043 16.1429 16.7326 15.8306 16.7326 15.5121C16.7326 15.1936 16.6043 14.8812 16.379 14.6561C16.1538 14.4307 15.8414 14.3012 15.5229 14.3012Z" fill="#C79F61"/>
<path d="M60.7789 59.5781H60.7625C60.0939 59.5781 59.5516 60.1204 59.5516 60.7891C59.5516 61.4577 60.0939 62 60.7625 62H60.7789C61.4476 62 61.9898 61.4577 61.9898 60.7891C61.9898 60.1204 61.4476 59.5781 60.7789 59.5781Z" fill="#C79F61"/>
</svg>
