<svg width="62" height="62" viewBox="0 0 62 62" fill="none" xmlns="http://www.w3.org/2000/svg">
<g clip-path="url(#clip0)">
<path d="M25.5969 25.5656C25.2734 25.3122 24.9086 25.1126 24.5217 24.9745C22.9919 24.4278 21.2305 24.933 20.2282 26.2128C19.9747 26.5363 19.7752 26.9012 19.637 27.2882L13.53 44.3877L7.42303 27.2881C6.90378 25.834 5.51726 24.8117 3.97138 24.7525C3.48495 24.7338 2.9967 24.8109 2.53836 24.9745C1.08427 25.4938 0.0622409 26.8803 0.00278395 28.4262C-0.0158645 28.9125 0.0610299 29.4008 0.224627 29.8591L9.93075 57.0363C10.4726 58.5533 11.919 59.5726 13.5299 59.5726C15.1408 59.5726 16.5871 58.5533 17.129 57.0363L26.8352 29.8591C27.3813 28.329 26.8763 26.5678 25.5969 25.5656ZM25.1212 29.2468L15.4151 56.4239C15.1312 57.2186 14.3737 57.7524 13.5299 57.7524C12.6861 57.7524 11.9286 57.2186 11.6447 56.4239L1.93858 29.2468C1.57107 28.2179 2.12386 27.0547 3.15049 26.688C4.1799 26.3207 5.3424 26.8734 5.70895 27.9L12.6729 47.3989C12.8009 47.7571 13.1497 48.0029 13.5299 48.0029C13.9101 48.0029 14.259 47.7571 14.3869 47.3989L21.3508 27.9C21.7175 26.8733 22.8803 26.3205 23.9093 26.688C24.9335 27.061 25.4905 28.213 25.1212 29.2468Z" fill="#C79F61"/>
<path d="M35.8541 34.3364C36.3568 34.3364 36.764 33.9292 36.764 33.4265V28.5735C36.764 26.4662 35.0496 24.7516 32.9422 24.7516C30.8348 24.7516 29.1203 26.4661 29.1203 28.5735V55.7506C29.1203 57.8579 30.8348 59.5724 32.9422 59.5724C35.0496 59.5724 36.764 57.858 36.764 55.7506V36.5809C36.764 36.0782 36.3568 35.671 35.8541 35.671C35.3514 35.671 34.9442 36.0782 34.9442 36.5809V55.7505C34.9442 56.8542 34.0462 57.7524 32.9423 57.7524C31.8384 57.7524 30.9404 56.8544 30.9404 55.7505V28.5733C30.9404 27.4695 31.8384 26.5714 32.9423 26.5714C34.0462 26.5714 34.9442 27.4695 34.9442 28.5733V33.4264C34.9441 33.9291 35.3514 34.3364 35.8541 34.3364Z" fill="#C79F61"/>
<path d="M58.1782 24.7516H42.6484C40.5411 24.7516 38.8266 26.4661 38.8266 28.5735V55.7506C38.8266 57.8579 40.541 59.5724 42.6484 59.5724C44.7557 59.5724 46.4702 57.858 46.4702 55.7506V47.9251H58.1783C60.2856 47.9251 62.0001 46.2106 62.0001 44.1032V28.5733C62 26.4661 60.2854 24.7516 58.1782 24.7516ZM60.1801 44.1032C60.1801 45.2071 59.2821 46.1051 58.1782 46.1051H45.5602C45.0576 46.1051 44.6503 46.5124 44.6503 47.015V55.7506C44.6503 56.8544 43.7523 57.7525 42.6484 57.7525C41.5445 57.7525 40.6465 56.8545 40.6465 55.7506V28.5733C40.6465 27.4695 41.5445 26.5714 42.6484 26.5714H58.1782C59.2821 26.5714 60.1801 27.4695 60.1801 28.5733V44.1032Z" fill="#C79F61"/>
<path d="M55.2664 30.5753H45.5602C45.0576 30.5753 44.6503 30.9825 44.6503 31.4852V41.1913C44.6503 41.6939 45.0576 42.1012 45.5602 42.1012H55.2664C55.769 42.1012 56.1763 41.6939 56.1763 41.1913V31.4852C56.1763 30.9826 55.769 30.5753 55.2664 30.5753ZM54.3563 40.2814H46.4701V32.3952H54.3563V40.2814Z" fill="#C79F61"/>
<path d="M45.5602 6.31007C43.9881 6.31007 42.7091 7.58906 42.7091 9.16121C42.7091 9.39335 42.7375 9.61859 42.7901 9.83474L37.1813 11.938L34.3815 7.73837C35.2253 7.24273 35.7933 6.32605 35.7933 5.27871C35.7933 3.70656 34.5143 2.42757 32.9422 2.42757C31.37 2.42757 30.091 3.70656 30.091 5.27871C30.091 6.32617 30.6591 7.24273 31.5028 7.73837L28.703 11.938L23.0945 9.83474C23.147 9.61871 23.1755 9.39323 23.1755 9.16109C23.1755 7.58894 21.8965 6.30995 20.3243 6.30995C18.7522 6.30995 17.4732 7.58894 17.4732 9.16109C17.4732 10.7333 18.7522 12.0122 20.3243 12.0122C20.6542 12.0122 20.9709 11.9553 21.2658 11.8518L26.2086 20.0899V22.7496C26.2086 23.2523 26.6159 23.6595 27.1185 23.6595H38.7659C39.2686 23.6595 39.6758 23.2523 39.6758 22.7496V20.0899L44.6186 11.8518C44.9136 11.9553 45.2302 12.0124 45.5601 12.0124C47.1323 12.0124 48.4113 10.7334 48.4113 9.16121C48.4114 7.58906 47.1324 6.31007 45.5602 6.31007ZM20.3242 10.1924C19.7556 10.1924 19.293 9.72987 19.293 9.16121C19.293 8.59256 19.7556 8.12998 20.3242 8.12998C20.8929 8.12998 21.3554 8.59256 21.3554 9.16121C21.3556 9.72975 20.8929 10.1924 20.3242 10.1924ZM32.9422 4.24736C33.5108 4.24736 33.9734 4.70994 33.9734 5.27859C33.9734 5.84725 33.5108 6.30982 32.9422 6.30982C32.3735 6.30982 31.9109 5.84725 31.9109 5.27859C31.9109 4.71006 32.3735 4.24736 32.9422 4.24736ZM37.8559 21.8397H28.0284V20.7478H37.8559V21.8397ZM38.2508 18.9279H27.6337L23.4165 11.8991L28.7402 13.8955C29.1366 14.0442 29.5822 13.9002 29.8169 13.5482L32.9423 8.86018L36.0677 13.5482C36.2995 13.896 36.753 14.0421 37.1443 13.8955L42.4681 11.899L38.2508 18.9279ZM45.5602 10.1924C44.9916 10.1924 44.529 9.72987 44.529 9.16121C44.529 8.59256 44.9916 8.12998 45.5602 8.12998C46.1289 8.12998 46.5915 8.59256 46.5915 9.16121C46.5915 9.72975 46.1289 10.1924 45.5602 10.1924Z" fill="#C79F61"/>
</g>
<defs>
<clipPath id="clip0">
<rect width="62" height="62" fill="white"/>
</clipPath>
</defs>
</svg>
