<svg width="31" height="55" viewBox="0 0 31 55" fill="none" xmlns="http://www.w3.org/2000/svg">
<path d="M20.0589 2.7356H10.9413C10.438 2.7356 10.0295 3.14407 10.0295 3.64732C10.0295 4.15057 10.438 4.55905 10.9413 4.55905H20.0589C20.5621 4.55905 20.9706 4.15057 20.9706 3.64732C20.9706 3.14407 20.5621 2.7356 20.0589 2.7356Z" fill="white"/>
<path d="M26.4411 2.7356H25.5294C25.0262 2.7356 24.6177 3.14407 24.6177 3.64732C24.6177 4.15057 25.0262 4.55905 25.5294 4.55905H26.4411C26.9444 4.55905 27.3529 4.15057 27.3529 3.64732C27.3529 3.14407 26.9444 2.7356 26.4411 2.7356Z" fill="white"/>
<path d="M16.6324 46.5H14.3685C12.9818 46.5 11.853 47.6287 11.853 49.0155V49.4559C11.853 50.8427 12.9818 51.9706 14.3677 51.9706H16.6316C18.0183 51.9706 19.1471 50.8427 19.1471 49.4559V49.0155C19.1471 47.6287 18.0183 46.5 16.6324 46.5ZM17.3236 49.4559C17.3236 49.837 17.0136 50.147 16.6325 50.147H14.3685C13.9866 50.147 13.6765 49.837 13.6765 49.4559V49.0155C13.6765 48.6335 13.9864 48.3235 14.3685 48.3235H16.6316C17.0136 48.3235 17.3236 48.6334 17.3236 49.0155V49.4559Z" fill="white"/>
<path d="M27.7048 0H3.29602C1.47887 0 0 1.47887 0 3.29602V51.4097C0 53.2269 1.47887 54.7058 3.29602 54.7058H27.7039C29.521 54.7058 30.9999 53.2269 30.9999 51.4107V3.29602C31 1.47887 29.5211 0 27.7048 0ZM29.1764 51.4097C29.1764 52.2212 28.5163 52.8822 27.7048 52.8822H3.29602C2.48366 52.8822 1.82356 52.2211 1.82356 51.4106V3.29602C1.82356 2.48452 2.48366 1.82356 3.29602 1.82356H27.7039C28.5162 1.82356 29.1763 2.48462 29.1763 3.29602V51.4097H29.1764Z" fill="white"/>
<path d="M30.0882 5.47021H0.91185C0.408599 5.47021 0.00012207 5.87869 0.00012207 6.38194V44.676C0.00012207 45.1792 0.408599 45.5877 0.91185 45.5877H30.0883C30.5915 45.5877 31 45.1792 31 44.676V6.38194C31 5.87869 30.5915 5.47021 30.0882 5.47021ZM29.1765 43.7642H1.82358V7.29378H29.1765V43.7642Z" fill="white"/>
</svg>
